<svg width="30" height="30" viewBox="0 0 30 30" fill="none" xmlns="http://www.w3.org/2000/svg">
<g id="Iconsax/Bulk/calendar">
<path id="Vector" d="M20.9375 4.45V2.5C20.9375 1.9875 20.5125 1.5625 20 1.5625C19.4875 1.5625 19.0625 1.9875 19.0625 2.5V4.375H10.9375V2.5C10.9375 1.9875 10.5125 1.5625 10 1.5625C9.4875 1.5625 9.0625 1.9875 9.0625 2.5V4.45C5.6875 4.7625 4.05 6.775 3.8 9.7625C3.775 10.125 4.075 10.425 4.425 10.425H25.575C25.9375 10.425 26.2375 10.1125 26.2 9.7625C25.95 6.775 24.3125 4.7625 20.9375 4.45V4.45Z" fill="#5925DC"/>
<path id="Vector_2" opacity="0.4" d="M25 12.3C25.6875 12.3 26.25 12.8625 26.25 13.55V21.25C26.25 25 24.375 27.5 20 27.5H10C5.625 27.5 3.75 25 3.75 21.25V13.55C3.75 12.8625 4.3125 12.3 5 12.3H25Z" fill="#5925DC"/>
<path id="Vector_3" d="M10.625 18.7487C10.3 18.7487 9.975 18.6112 9.7375 18.3862C9.5125 18.1487 9.375 17.8237 9.375 17.4987C9.375 17.1737 9.5125 16.8487 9.7375 16.6112C10.0875 16.2612 10.6375 16.1488 11.1 16.3488C11.2625 16.4113 11.4 16.4987 11.5125 16.6112C11.7375 16.8487 11.875 17.1737 11.875 17.4987C11.875 17.8237 11.7375 18.1487 11.5125 18.3862C11.275 18.6112 10.95 18.7487 10.625 18.7487V18.7487ZM15 18.7487C14.675 18.7487 14.35 18.6112 14.1125 18.3862C13.8875 18.1487 13.75 17.8237 13.75 17.4987C13.75 17.1737 13.8875 16.8487 14.1125 16.6112C14.225 16.4987 14.3625 16.4113 14.525 16.3488C14.9875 16.1488 15.5375 16.2612 15.8875 16.6112C16.1125 16.8487 16.25 17.1737 16.25 17.4987C16.25 17.8237 16.1125 18.1487 15.8875 18.3862L15.7 18.5363C15.625 18.5863 15.55 18.6237 15.475 18.6487C15.4 18.6862 15.325 18.7112 15.25 18.7237C15.1625 18.7362 15.0875 18.7487 15 18.7487V18.7487ZM19.375 18.75C19.05 18.75 18.725 18.6125 18.4875 18.3875C18.2625 18.15 18.125 17.825 18.125 17.5C18.125 17.175 18.2625 16.85 18.4875 16.6125C18.6125 16.5 18.7375 16.4125 18.9 16.35C19.125 16.25 19.375 16.225 19.625 16.275C19.7 16.2875 19.775 16.3125 19.85 16.35C19.925 16.375 20 16.4125 20.075 16.4625L20.2625 16.6125C20.4875 16.85 20.625 17.175 20.625 17.5C20.625 17.825 20.4875 18.15 20.2625 18.3875L20.075 18.5375C20 18.5875 19.925 18.625 19.85 18.65C19.775 18.6875 19.7 18.7125 19.625 18.725C19.5375 18.7375 19.45 18.75 19.375 18.75V18.75ZM10.625 23.125C10.4625 23.125 10.3 23.0875 10.15 23.025C9.9875 22.9625 9.8625 22.875 9.7375 22.7625C9.5125 22.525 9.375 22.2 9.375 21.875C9.375 21.55 9.5125 21.225 9.7375 20.9875C9.8625 20.875 9.9875 20.7875 10.15 20.725C10.375 20.625 10.625 20.6 10.875 20.65C10.95 20.6625 11.025 20.6875 11.1 20.725C11.175 20.75 11.25 20.7875 11.325 20.8375L11.5125 20.9875C11.7375 21.225 11.875 21.55 11.875 21.875C11.875 22.2 11.7375 22.525 11.5125 22.7625C11.45 22.8125 11.3875 22.875 11.325 22.9125C11.25 22.9625 11.175 23 11.1 23.025C11.025 23.0625 10.95 23.0875 10.875 23.1C10.7875 23.1125 10.7125 23.125 10.625 23.125ZM15 23.125C14.675 23.125 14.35 22.9875 14.1125 22.7625C13.8875 22.525 13.75 22.2 13.75 21.875C13.75 21.55 13.8875 21.225 14.1125 20.9875C14.575 20.525 15.425 20.525 15.8875 20.9875C16.1125 21.225 16.25 21.55 16.25 21.875C16.25 22.2 16.1125 22.525 15.8875 22.7625C15.65 22.9875 15.325 23.125 15 23.125ZM19.375 23.125C19.05 23.125 18.725 22.9875 18.4875 22.7625C18.2625 22.525 18.125 22.2 18.125 21.875C18.125 21.55 18.2625 21.225 18.4875 20.9875C18.95 20.525 19.8 20.525 20.2625 20.9875C20.4875 21.225 20.625 21.55 20.625 21.875C20.625 22.2 20.4875 22.525 20.2625 22.7625C20.025 22.9875 19.7 23.125 19.375 23.125Z" fill="#5925DC"/>
</g>
</svg>
