<svg width="24" height="24" viewBox="0 0 24 24" fill="none" xmlns="http://www.w3.org/2000/svg">
<g id="Iconsax/Bulk/clipboardtext">
<path id="Vector" opacity="0.4" d="M16.24 3.64801H7.76001C5.29001 3.64801 3.29001 5.65801 3.29001 8.11801V17.528C3.29001 19.988 5.30001 21.998 7.76001 21.998H16.23C18.7 21.998 20.7 19.988 20.7 17.528V8.11801C20.71 5.64801 18.7 3.64801 16.24 3.64801Z" fill="#6938EF"/>
<path id="Vector_2" d="M14.35 2H9.65C8.61 2 7.76 2.84 7.76 3.88V4.82C7.76 5.86 8.6 6.7 9.64 6.7H14.35C15.39 6.7 16.23 5.86 16.23 4.82V3.88C16.24 2.84 15.39 2 14.35 2ZM15 12.95H8C7.59 12.95 7.25 12.61 7.25 12.2C7.25 11.79 7.59 11.45 8 11.45H15C15.41 11.45 15.75 11.79 15.75 12.2C15.75 12.61 15.41 12.95 15 12.95ZM12.38 16.95H8C7.59 16.95 7.25 16.61 7.25 16.2C7.25 15.79 7.59 15.45 8 15.45H12.38C12.79 15.45 13.13 15.79 13.13 16.2C13.13 16.61 12.79 16.95 12.38 16.95Z" fill="#6938EF"/>
</g>
</svg>
