<svg width="24" height="24" viewBox="0 0 24 24" fill="none" xmlns="http://www.w3.org/2000/svg">
<g id="Iconsax/Bulk/clipboardclose">
<path id="Vector" opacity="0.4" d="M16.24 3.64801H7.76001C5.29001 3.64801 3.29001 5.65801 3.29001 8.11801V17.528C3.29001 19.988 5.30001 21.998 7.76001 21.998H16.23C18.7 21.998 20.7 19.988 20.7 17.528V8.11801C20.71 5.64801 18.7 3.64801 16.24 3.64801Z" fill="#5925DC"/>
<path id="Vector_2" d="M14.35 2H9.65001C8.61001 2 7.76001 2.84 7.76001 3.88V4.82C7.76001 5.86 8.60001 6.7 9.64001 6.7H14.35C15.39 6.7 16.23 5.86 16.23 4.82V3.88C16.24 2.84 15.39 2 14.35 2ZM14.53 15.619L13.08 14.169L14.48 12.769C14.77 12.479 14.77 11.999 14.48 11.709C14.3389 11.5695 14.1484 11.4913 13.95 11.4913C13.7516 11.4913 13.5611 11.5695 13.42 11.709L12.02 13.109L10.57 11.659C10.4287 11.5198 10.2384 11.4417 10.04 11.4417C9.84166 11.4417 9.65127 11.5198 9.51001 11.659C9.22001 11.949 9.22001 12.429 9.51001 12.719L10.96 14.169L9.47001 15.659C9.18001 15.949 9.18001 16.429 9.47001 16.719C9.62001 16.869 9.81001 16.939 10 16.939C10.19 16.939 10.38 16.869 10.53 16.719L12.02 15.229L13.47 16.679C13.62 16.829 13.81 16.899 14 16.899C14.19 16.899 14.38 16.829 14.53 16.679C14.82 16.389 14.82 15.919 14.53 15.619Z" fill="#5925DC"/>
</g>
</svg>
