<svg width="30" height="30" viewBox="0 0 30 30" fill="none" xmlns="http://www.w3.org/2000/svg">
<g id="Iconsax/Bulk/closesquare">
<path id="Vector" opacity="0.4" d="M20.2375 2.5H9.7625C5.2125 2.5 2.5 5.2125 2.5 9.7625V20.225C2.5 24.7875 5.2125 27.5 9.7625 27.5H20.225C24.775 27.5 27.4875 24.7875 27.4875 20.2375V9.7625C27.5 5.2125 24.7875 2.5 20.2375 2.5Z" fill="#5925DC"/>
<path id="Vector_2" d="M16.325 15L19.2 12.125C19.5625 11.7625 19.5625 11.1625 19.2 10.8C19.0235 10.6256 18.7855 10.5279 18.5375 10.5279C18.2894 10.5279 18.0514 10.6256 17.875 10.8L15 13.675L12.125 10.8C11.9485 10.6256 11.7105 10.5279 11.4625 10.5279C11.2144 10.5279 10.9764 10.6256 10.8 10.8C10.4375 11.1625 10.4375 11.7625 10.8 12.125L13.675 15L10.8 17.875C10.4375 18.2375 10.4375 18.8375 10.8 19.2C10.9875 19.3875 11.225 19.475 11.4625 19.475C11.7 19.475 11.9375 19.3875 12.125 19.2L15 16.325L17.875 19.2C18.0625 19.3875 18.3 19.475 18.5375 19.475C18.775 19.475 19.0125 19.3875 19.2 19.2C19.5625 18.8375 19.5625 18.2375 19.2 17.875L16.325 15Z" fill="#5925DC"/>
</g>
</svg>
