<svg width="24" height="24" viewBox="0 0 24 24" fill="none" xmlns="http://www.w3.org/2000/svg">
<g id="Iconsax/Bulk/edit">
<path id="Vector" opacity="0.4" d="M15.48 3H7.52C4.07 3 2 5.06 2 8.52V16.47C2 19.94 4.07 22 7.52 22H15.47C18.93 22 20.99 19.94 20.99 16.48V8.52C21 5.06 18.93 3 15.48 3Z" fill="#6938EF"/>
<path id="Vector_2" d="M21.02 2.97802C19.23 1.17802 17.48 1.13802 15.64 2.97802L14.51 4.09802C14.41 4.19802 14.38 4.33802 14.42 4.46802C15.12 6.91802 17.08 8.87802 19.53 9.57802C19.56 9.58802 19.61 9.58802 19.64 9.58802C19.74 9.58802 19.84 9.54802 19.91 9.47802L21.02 8.35802C21.93 7.44802 22.38 6.57802 22.38 5.68802C22.38 4.78802 21.93 3.89802 21.02 2.97802ZM17.86 10.42C17.59 10.29 17.33 10.16 17.09 10.01C16.89 9.89002 16.69 9.76002 16.5 9.62002C16.34 9.52002 16.16 9.37002 15.98 9.22002C15.96 9.21002 15.9 9.16002 15.82 9.08002C15.51 8.83002 15.18 8.49002 14.87 8.12002C14.85 8.10002 14.79 8.04002 14.74 7.95002C14.64 7.84002 14.49 7.65002 14.36 7.44002C14.25 7.30002 14.12 7.10002 14 6.89002C13.85 6.64002 13.72 6.39002 13.6 6.13002C13.47 5.85002 13.37 5.59002 13.28 5.34002L7.89999 10.72C7.54999 11.07 7.20999 11.73 7.13999 12.22L6.70999 15.2C6.61999 15.83 6.78999 16.42 7.17999 16.81C7.50999 17.14 7.95999 17.31 8.45999 17.31C8.56999 17.31 8.67999 17.3 8.78999 17.29L11.76 16.87C12.25 16.8 12.91 16.47 13.26 16.11L18.64 10.73C18.39 10.65 18.14 10.54 17.86 10.42Z" fill="#6938EF"/>
</g>
</svg>
