<svg width="30" height="30" viewBox="0 0 30 30" fill="none" xmlns="http://www.w3.org/2000/svg">
<g id="Iconsax/Bulk/location">
<path id="Vector" opacity="0.4" d="M25.7762 10.5625C24.4637 4.7875 19.4262 2.1875 15.0012 2.1875H14.9887C10.5762 2.1875 5.52625 4.775 4.21375 10.55C2.75125 17 6.70125 22.4625 10.2762 25.9C11.5434 27.1265 13.2377 27.8123 15.0012 27.8125C16.7012 27.8125 18.4012 27.175 19.7137 25.9C23.2887 22.4625 27.2387 17.0125 25.7762 10.5625Z" fill="#5925DC"/>
<path id="Vector_2" d="M15.0025 16.825C15.5196 16.825 16.0316 16.7232 16.5093 16.5253C16.987 16.3274 17.4211 16.0374 17.7867 15.6717C18.1524 15.3061 18.4424 14.872 18.6403 14.3943C18.8382 13.9166 18.94 13.4046 18.94 12.8875C18.94 12.3704 18.8382 11.8584 18.6403 11.3807C18.4424 10.903 18.1524 10.4689 17.7867 10.1033C17.4211 9.73765 16.987 9.44761 16.5093 9.24974C16.0316 9.05186 15.5196 8.95001 15.0025 8.95001C13.9582 8.95001 12.9567 9.36486 12.2183 10.1033C11.4798 10.8417 11.065 11.8432 11.065 12.8875C11.065 13.9318 11.4798 14.9333 12.2183 15.6717C12.9567 16.4102 13.9582 16.825 15.0025 16.825Z" fill="#5925DC"/>
</g>
</svg>
