<svg width="30" height="30" viewBox="0 0 30 30" fill="none" xmlns="http://www.w3.org/2000/svg">
<g id="Iconsax/Bulk/messagequestion">
<path id="Vector" opacity="0.4" d="M21.25 23.0375H16.25L10.6875 26.7375C10.4998 26.8626 10.2816 26.9344 10.0563 26.9453C9.8309 26.9562 9.60683 26.9057 9.40794 26.7992C9.20905 26.6926 9.0428 26.5342 8.92693 26.3406C8.81106 26.147 8.7499 25.9256 8.75 25.7V23.0375C5 23.0375 2.5 20.5375 2.5 16.7875V9.28748C2.5 5.53748 5 3.03748 8.75 3.03748H21.25C25 3.03748 27.5 5.53748 27.5 9.28748V16.7875C27.5 20.5375 25 23.0375 21.25 23.0375Z" fill="#6938EF"/>
<path id="Vector_2" d="M15 15.1375C14.4875 15.1375 14.0625 14.7125 14.0625 14.2V13.9375C14.0625 12.4875 15.125 11.775 15.525 11.5C15.9875 11.1875 16.1375 10.975 16.1375 10.65C16.1375 10.025 15.625 9.51251 15 9.51251C14.375 9.51251 13.8625 10.025 13.8625 10.65C13.8625 11.1625 13.4375 11.5875 12.925 11.5875C12.4125 11.5875 11.9875 11.1625 11.9875 10.65C11.9875 8.98751 13.3375 7.63751 15 7.63751C16.6625 7.63751 18.0125 8.98751 18.0125 10.65C18.0125 12.075 16.9625 12.7875 16.575 13.05C16.0875 13.375 15.9375 13.5875 15.9375 13.9375V14.2C15.9375 14.725 15.5125 15.1375 15 15.1375ZM15 18.2525C14.877 18.2527 14.7553 18.2286 14.6416 18.1817C14.528 18.1348 14.4246 18.066 14.3376 17.9792C14.2505 17.8924 14.1814 17.7892 14.1342 17.6757C14.087 17.5622 14.0627 17.4405 14.0625 17.3175C14.0623 17.1946 14.0864 17.0728 14.1333 16.9591C14.1802 16.8455 14.249 16.7422 14.3358 16.6551C14.4226 16.5681 14.5258 16.499 14.6393 16.4518C14.7528 16.4046 14.8745 16.3802 14.9975 16.38C15.2458 16.3797 15.4841 16.478 15.6599 16.6533C15.8357 16.8287 15.9347 17.0667 15.935 17.315C15.9353 17.5633 15.837 17.8016 15.6617 17.9774C15.4863 18.1532 15.2483 18.2522 15 18.2525Z" fill="#6938EF"/>
</g>
</svg>
