<svg width="30" height="30" viewBox="0 0 30 30" fill="none" xmlns="http://www.w3.org/2000/svg">
<g id="Iconsax/Bulk/notification">
<path id="Vector" opacity="0.4" d="M24.175 18.11L22.925 16.035C22.6625 15.5725 22.425 14.6975 22.425 14.185V11.0225C22.425 6.9475 19.1125 3.6225 15.025 3.6225C10.9375 3.6225 7.62499 6.9475 7.62499 11.0225V14.185C7.62499 14.6975 7.38749 15.5725 7.12499 16.0225L5.86249 18.11C5.36249 18.9475 5.24999 19.8725 5.56249 20.7225C5.86249 21.56 6.57499 22.21 7.49999 22.5225C9.92499 23.3475 12.475 23.7475 15.025 23.7475C17.575 23.7475 20.125 23.3475 22.55 22.535C23.425 22.2475 24.1 21.585 24.425 20.7225C24.75 19.86 24.6625 18.91 24.175 18.11Z" fill="#6938EF"/>
<path id="Vector_2" d="M17.8125 4.15C16.95 3.8125 16.0125 3.625 15.025 3.625C14.05 3.625 13.1125 3.8 12.25 4.15C12.7875 3.1375 13.85 2.5 15.025 2.5C16.2125 2.5 17.2625 3.1375 17.8125 4.15ZM18.5375 25.0125C18.2746 25.7402 17.7941 26.3693 17.1612 26.8143C16.5283 27.2594 15.7737 27.4988 15 27.5C14.0125 27.5 13.0375 27.1 12.35 26.3875C11.95 26.0125 11.65 25.5125 11.475 25C11.6375 25.025 11.8 25.0375 11.975 25.0625C12.2625 25.1 12.5625 25.1375 12.8625 25.1625C13.575 25.225 14.3 25.2625 15.025 25.2625C15.7375 25.2625 16.45 25.225 17.15 25.1625C17.4125 25.1375 17.675 25.125 17.925 25.0875L18.5375 25.0125Z" fill="#6938EF"/>
</g>
</svg>
