<svg width="30" height="30" viewBox="0 0 30 30" fill="none" xmlns="http://www.w3.org/2000/svg">
<g id="Iconsax/Bulk/ranking">
<path id="Vector" d="M16.625 10.14L18.275 13.44C18.5 13.89 19.1 14.34 19.6 14.415L22.5875 14.915C24.5 15.24 24.95 16.615 23.575 17.99L21.25 20.315C20.8625 20.7025 20.6375 21.465 20.7625 22.015L21.425 24.9025C21.95 27.1775 20.7375 28.065 18.725 26.8775L15.925 25.215C15.4125 24.915 14.5875 24.915 14.075 25.215L11.275 26.8775C9.2625 28.065 8.05 27.1775 8.575 24.9025L9.2375 22.015C9.3625 21.4775 9.1375 20.715 8.75 20.315L6.425 17.99C5.05 16.615 5.5 15.2275 7.4125 14.915L10.4 14.415C10.9 14.3275 11.5 13.89 11.725 13.44L13.375 10.14C14.2625 8.3525 15.7375 8.3525 16.625 10.14Z" fill="#5925DC"/>
<path id="Vector_2" opacity="0.4" d="M7.5 12.1875C6.9875 12.1875 6.5625 11.7625 6.5625 11.25V2.5C6.5625 1.9875 6.9875 1.5625 7.5 1.5625C8.0125 1.5625 8.4375 1.9875 8.4375 2.5V11.25C8.4375 11.7625 8.0125 12.1875 7.5 12.1875ZM22.5 12.1875C21.9875 12.1875 21.5625 11.7625 21.5625 11.25V2.5C21.5625 1.9875 21.9875 1.5625 22.5 1.5625C23.0125 1.5625 23.4375 1.9875 23.4375 2.5V11.25C23.4375 11.7625 23.0125 12.1875 22.5 12.1875ZM15 5.9375C14.4875 5.9375 14.0625 5.5125 14.0625 5V2.5C14.0625 1.9875 14.4875 1.5625 15 1.5625C15.5125 1.5625 15.9375 1.9875 15.9375 2.5V5C15.9375 5.5125 15.5125 5.9375 15 5.9375Z" fill="#5925DC"/>
</g>
</svg>
