<svg width="24" height="24" viewBox="0 0 24 24" fill="none" xmlns="http://www.w3.org/2000/svg">
<g id="Iconsax/Bulk/tasksquare">
<path id="Vector" opacity="0.4" d="M14.19 0.968994H5.81C2.17 0.968994 0 3.13899 0 6.77899V15.159C0 18.799 2.17 20.969 5.81 20.969H14.19C17.83 20.969 20 18.799 20 15.159V6.77899C20 3.13899 17.83 0.968994 14.19 0.968994Z" fill="#6938EF"/>
<path id="Vector_2" d="M16.31 7.83998C16.31 8.24998 15.98 8.58998 15.56 8.58998H10.31C9.9 8.58998 9.56 8.24998 9.56 7.83998C9.56 7.42998 9.9 7.08998 10.31 7.08998H15.56C15.98 7.08998 16.31 7.42998 16.31 7.83998ZM7.97 6.86698L5.72 9.11698C5.57 9.26698 5.38 9.33698 5.19 9.33698C5 9.33698 4.8 9.26698 4.66 9.11698L3.91 8.36698C3.61 8.07698 3.61 7.59698 3.91 7.30698C4.2 7.01698 4.67 7.01698 4.97 7.30698L5.19 7.52698L6.91 5.80698C7.2 5.51698 7.67 5.51698 7.97 5.80698C8.26 6.09698 8.26 6.57698 7.97 6.86698ZM16.31 14.84C16.31 15.25 15.98 15.59 15.56 15.59H10.31C9.9 15.59 9.56 15.25 9.56 14.84C9.56 14.43 9.9 14.09 10.31 14.09H15.56C15.98 14.09 16.31 14.43 16.31 14.84ZM7.97 13.867L5.72 16.117C5.57 16.267 5.38 16.337 5.19 16.337C5 16.337 4.8 16.267 4.66 16.117L3.91 15.367C3.61 15.077 3.61 14.597 3.91 14.307C4.2 14.017 4.67 14.017 4.97 14.307L5.19 14.527L6.91 12.807C7.2 12.517 7.67 12.517 7.97 12.807C8.26 13.097 8.26 13.577 7.97 13.867Z" fill="#6938EF"/>
</g>
</svg>
