<svg width="24" height="24" viewBox="0 0 24 24" fill="none" xmlns="http://www.w3.org/2000/svg">
<g id="Iconsax/Bulk/timer">
<path id="Vector" opacity="0.4" d="M18.35 19.68C18.0847 20.3654 17.6177 20.9542 17.0106 21.3685C16.4035 21.7827 15.6849 22.003 14.95 22H9.04998C8.3147 22.0044 7.59552 21.7847 6.98815 21.3703C6.38078 20.9558 5.91402 20.3663 5.64998 19.68C5.09998 18.26 5.47998 16.69 6.59998 15.67L10.65 12H13.36L17.4 15.67C17.9456 16.1637 18.3285 16.8114 18.4981 17.5274C18.6678 18.2434 18.6161 18.994 18.35 19.68Z" fill="#5925DC"/>
<path id="Vector_2" d="M13.82 18.141H10.18C9.99964 18.141 9.82668 18.0694 9.69915 17.9418C9.57163 17.8143 9.49999 17.6413 9.49999 17.461C9.49999 17.2807 9.57163 17.1077 9.69915 16.9802C9.82668 16.8526 9.99964 16.781 10.18 16.781H13.82C14.2 16.781 14.5 17.091 14.5 17.461C14.5 17.831 14.19 18.141 13.82 18.141ZM18.35 4.32C18.0848 3.63455 17.6177 3.04577 17.0106 2.63151C16.4035 2.21725 15.685 1.99704 14.95 2H9.04999C8.31437 1.99722 7.59527 2.21799 6.98795 2.63308C6.38063 3.04817 5.91375 3.63798 5.64917 4.32437C5.38459 5.01076 5.33479 5.76134 5.50638 6.47667C5.67796 7.192 6.06283 7.83832 6.60999 8.33L10.65 12H13.36L17.4 8.33C17.9456 7.83629 18.3285 7.18863 18.4981 6.47263C18.6678 5.75663 18.6161 5.00601 18.35 4.32ZM13.82 7.23H10.18C9.99964 7.23 9.82668 7.15836 9.69915 7.03083C9.57163 6.90331 9.49999 6.73035 9.49999 6.55C9.49999 6.18 9.80999 5.87 10.18 5.87H13.82C14.2 5.87 14.5 6.18 14.5 6.55C14.5 6.92 14.19 7.23 13.82 7.23Z" fill="#5925DC"/>
</g>
</svg>
