<svg width="30" height="30" viewBox="0 0 30 30" fill="none" xmlns="http://www.w3.org/2000/svg">
<g id="Iconsax/Bulk/usertick">
<path id="Vector" d="M22.5 16.25C21.325 16.25 20.2375 16.6625 19.375 17.35C18.7882 17.8163 18.3147 18.4094 17.99 19.0849C17.6653 19.7603 17.4977 20.5005 17.5 21.25C17.5 22.1875 17.7625 23.075 18.225 23.825C18.6657 24.5656 19.2916 25.1787 20.0412 25.6039C20.7908 26.0291 21.6382 26.2518 22.5 26.25C23.7625 26.25 24.9125 25.7875 25.7875 25C26.175 24.675 26.5125 24.275 26.775 23.825C27.2375 23.075 27.5 22.1875 27.5 21.25C27.5 18.4875 25.2625 16.25 22.5 16.25ZM25.0875 20.7125L22.425 23.175C22.25 23.3375 22.0125 23.425 21.7875 23.425C21.55 23.425 21.3125 23.3375 21.125 23.15L19.8875 21.9125C19.7131 21.7361 19.6154 21.498 19.6154 21.25C19.6154 21.002 19.7131 20.7639 19.8875 20.5875C20.25 20.225 20.85 20.225 21.2125 20.5875L21.8125 21.1875L23.8125 19.3375C24.1875 18.9875 24.7875 19.0125 25.1375 19.3875C25.4875 19.7625 25.4625 20.35 25.0875 20.7125Z" fill="#6938EF"/>
<path id="Vector_2" opacity="0.4" d="M26.3625 26.875C26.3625 27.225 26.0875 27.5 25.7375 27.5H4.2625C3.9125 27.5 3.6375 27.225 3.6375 26.875C3.6375 21.7 8.7375 17.5 15 17.5C16.2875 17.5 17.5375 17.675 18.6875 18.0125C17.95 18.8875 17.5 20.025 17.5 21.25C17.5 22.1875 17.7625 23.075 18.225 23.825C18.475 24.25 18.8 24.6375 19.175 24.9625C20.05 25.7625 21.2125 26.25 22.5 26.25C23.9 26.25 25.1625 25.675 26.0625 24.75C26.2625 25.425 26.3625 26.1375 26.3625 26.875Z" fill="#6938EF"/>
<path id="Vector_3" d="M15 15C16.6576 15 18.2473 14.3415 19.4194 13.1694C20.5915 11.9973 21.25 10.4076 21.25 8.75C21.25 7.0924 20.5915 5.50269 19.4194 4.33058C18.2473 3.15848 16.6576 2.5 15 2.5C13.3424 2.5 11.7527 3.15848 10.5806 4.33058C9.40848 5.50269 8.75 7.0924 8.75 8.75C8.75 10.4076 9.40848 11.9973 10.5806 13.1694C11.7527 14.3415 13.3424 15 15 15Z" fill="#6938EF"/>
</g>
</svg>
